<?xml version="1.0" encoding="utf-8"?>
<!-- Generator: Adobe Illustrator 21.1.0, SVG Export Plug-In . SVG Version: 6.00 Build 0)  -->
<svg version="1.1" id="Layer_1" xmlns="http://www.w3.org/2000/svg" xmlns:xlink="http://www.w3.org/1999/xlink" x="0px" y="0px"
	 viewBox="0 0 512 512" style="enable-background:new 0 0 512 512;" xml:space="preserve">
<style type="text/css">
	.st0{fill:#2980B9;}
	.st1{fill:#16A085;}
	.st2{fill:#1ABC9C;}
	.st3{fill:#9B59B6;}
	.st4{fill:#8E44AD;}
	.st5{fill:#3498DB;}
	.st6{fill:#FFFFFF;}
	.st7{fill:#2C3E50;}
</style>
<g id="Layer_1_1_">
	<g>
		<circle class="st0" cx="256" cy="255.9" r="234.3"/>
		<g>
			<path class="st1" d="M256,490.2c129.4,0,234.3-104.9,234.3-234.3H256V490.2z"/>
			<path class="st2" d="M421.6,421.6c42.4-42.4,68.6-101,68.6-165.6H256L421.6,421.6z"/>
			<path class="st3" d="M256,21.7C126.6,21.7,21.7,126.6,21.7,256H256V21.7z"/>
			<path class="st4" d="M256,21.7c-64.7,0-123.7,26.6-165.6,68.6L256,255.9V21.7z"/>
			<path class="st5" d="M256,490.2V255.9H21.7C21.7,385.3,126.6,490.2,256,490.2z"/>
		</g>
	</g>
</g>
<g id="Layer_2">
	<path class="st6" d="M188.4,139.5c-1.8,1.9-2.7,4.5-2.7,7.2v134.6c0,5.4,4,10.2,9.4,10.6c6.1,0.5,11.2-4.3,11.2-10.3V164.7l0,0
		l152.9,91.1l0,0l-147.9,96c-4.8,3.1-6.2,9.4-3.1,14.3c3.1,4.8,9.4,6.2,14.3,3.1l162-105.1c3-1.9,4.8-5.3,4.8-8.9
		c0-3.6-1.9-6.8-5-8.7L201.5,137.6C197.4,135.2,191.9,135.9,188.4,139.5z"/>
	<path class="st7" d="M281.3,23.6c11,1.2,22.1,3.2,33.2,6.1C439,62,514,189.5,481.7,314c-1.4,5.6,1.9,11.1,7.4,12.7
		c5.6,1.4,11.1-1.9,12.7-7.4c35.1-135.5-46.5-274.4-182-309.5c-11.1-2.8-22.1-4.9-33.2-6.3L281.3,23.6z"/>
	<path class="st7" d="M402.9,436.6c-27.8,22.5-60.8,38.5-95.6,46.4c-36.4,8.3-73.4,7.6-109.8-1.8C73,448.9-2,321.4,30.3,196.8
		c1.4-5.7,3.1-11.2,5-16.7l-20-5.2c-1.8,5.4-3.5,11-4.9,16.7c-35.1,135.5,46.5,274.4,182,309.5c39.1,10.1,80.5,10.9,119.5,1.9
		c37.8-8.5,73.9-26,104.1-50.5c4.4-3.6,5.2-10.1,1.6-14.6"/>
	<path class="st7" d="M417.6,438c-3.6-4.4-10.5-4.8-15-1.2"/>
	<path class="st7" d="M508.4,230.2c-5.8-58.1-31.5-114.6-76.9-158c-29.2-27.9-64.8-48.7-103.3-60.1C291,1.1,251.1-1.2,212.7,5.4
		c-5.7,0.9-9.4,6.3-8.4,11.9c0.9,5.7,6.3,9.4,11.9,8.4c35.3-6.1,72-3.9,106.1,6.2C358,42.5,390.1,61.1,417.2,87
		c39.7,38,63,86.8,69.8,137.6L508.4,230.2z"/>
	<path class="st7" d="M34.3,328.1C8.5,248.9,25.9,158.4,87.4,94.2c4-4.1,3.7-10.7-0.3-14.6c-4.1-4-10.7-3.7-14.6,0.3
		c-74.3,77.5-89.5,190.3-47,282.2L34.3,328.1z"/>
</g>
</svg>
