<?xml version="1.0" encoding="utf-8"?>
<!-- Generator: Adobe Illustrator 22.1.0, SVG Export Plug-In . SVG Version: 6.00 Build 0)  -->
<svg version="1.1" xmlns="http://www.w3.org/2000/svg" xmlns:xlink="http://www.w3.org/1999/xlink" x="0px" y="0px"
	 viewBox="0 0 512 512" style="enable-background:new 0 0 512 512;" xml:space="preserve">
<style type="text/css">
	.st0{fill:#2980B9;}
	.st1{fill:#16A085;}
	.st2{fill:#1ABC9C;}
	.st3{fill:#9B59B6;}
	.st4{fill:#8E44AD;}
	.st5{fill:#3498DB;}
	.st6{fill:#FFFFFF;}
	.st7{fill:#2C3E50;}
</style>
<g id="Layer_1">
	<g>
		<circle class="st0" cx="256" cy="255.8" r="181.4"/>
		<g>
			<path class="st1" d="M256,437.2c100.2,0,181.4-81.2,181.4-181.4H256V437.2z"/>
			<path class="st2" d="M384.2,384.1c32.8-32.8,53.1-78.2,53.1-128.2H256L384.2,384.1z"/>
			<path class="st3" d="M256,74.5c-100.2,0-181.4,81.2-181.4,181.4H256V74.5z"/>
			<path class="st4" d="M256,74.5c-50.1,0-95.8,20.6-128.2,53.1L256,255.8V74.5z"/>
			<path class="st5" d="M256,437.2V255.8H74.6C74.6,356,155.8,437.2,256,437.2z"/>
		</g>
	</g>
</g>
<g id="Layer_2">
	<path class="st6" d="M203.7,165.7c-1.4,1.5-2.1,3.5-2.1,5.6v104.2c0,4.2,3.1,7.9,7.3,8.2c4.7,0.4,8.7-3.3,8.7-8l0-90.5c0,0,0,0,0,0
		l118.4,70.5c0,0,0,0,0,0l-114.5,74.3c-3.7,2.4-4.8,7.3-2.4,11.1c2.4,3.7,7.3,4.8,11.1,2.4l125.4-81.4c2.3-1.5,3.7-4.1,3.7-6.9
		c0-2.8-1.5-5.3-3.9-6.7l-141.6-84.3C210.6,162.4,206.4,162.9,203.7,165.7z"/>
	<path class="st7" d="M275.6,76c8.5,0.9,17.1,2.5,25.7,4.7c96.4,25,154.4,123.7,129.4,220.1c-1.1,4.3,1.5,8.6,5.7,9.8
		c4.3,1.1,8.6-1.5,9.8-5.7c27.2-104.9-36-212.4-140.9-239.6c-8.6-2.2-17.1-3.8-25.7-4.9L275.6,76z"/>
	<path class="st7" d="M369.7,395.7c-21.5,17.4-47.1,29.8-74,35.9c-28.2,6.4-56.8,5.9-85-1.4c-96.4-25-154.4-123.7-129.4-220.1
		c1.1-4.4,2.4-8.7,3.9-12.9l-15.5-4c-1.4,4.2-2.7,8.5-3.8,12.9c-27.2,104.9,36,212.4,140.9,239.6c30.3,7.8,62.3,8.4,92.5,1.5
		c29.3-6.6,57.2-20.1,80.6-39.1c3.4-2.8,4-7.8,1.2-11.3"/>
	<path d="M380.9,396.9c-2.8-3.4-7.8-4-11.3-1.2"/>
	<path class="st7" d="M451.4,235.9c-4.5-45-24.4-88.7-59.5-122.3c-22.6-21.6-50.2-37.7-80-46.5c-28.8-8.5-59.7-10.3-89.4-5.2
		c-4.4,0.7-7.3,4.9-6.5,9.2c0.7,4.4,4.9,7.3,9.2,6.5c27.3-4.7,55.7-3,82.1,4.8c27.7,8.2,52.5,22.6,73.5,42.7
		c30.7,29.4,48.8,67.2,54,106.5L451.4,235.9z"/>
	<path class="st7" d="M84.4,311.7c-20-61.3-6.5-131.4,41.1-181.1c3.1-3.2,2.9-8.3-0.2-11.3c-3.2-3.1-8.3-2.9-11.3,0.2
		c-57.5,60-69.3,147.3-36.4,218.5L84.4,311.7z"/>
</g>
</svg>
